<mxfile host="app.diagrams.net" modified="2024-04-12T19:18:02.109Z" agent="Mozilla/5.0 (Windows NT 10.0; Win64; x64) AppleWebKit/537.36 (KHTML, like Gecko) Chrome/123.0.0.0 Safari/537.36" etag="sgAoU6uRIwB5qelt7gC9" version="24.2.3" type="device">
  <diagram name="Страница — 1" id="G1OCNp3iTKjuKQxlfAAk">
    <mxGraphModel dx="2654" dy="497" grid="1" gridSize="10" guides="1" tooltips="1" connect="1" arrows="1" fold="1" page="1" pageScale="1" pageWidth="827" pageHeight="1169" math="0" shadow="0">
      <root>
        <mxCell id="0" />
        <mxCell id="1" parent="0" />
        <mxCell id="g0YWyiWngcEdL_pEmTXZ-1" value="" style="endArrow=none;dashed=1;html=1;rounded=0;" edge="1" parent="1">
          <mxGeometry width="50" height="50" relative="1" as="geometry">
            <mxPoint x="-830" y="280" as="sourcePoint" />
            <mxPoint x="830" y="280" as="targetPoint" />
          </mxGeometry>
        </mxCell>
        <mxCell id="g0YWyiWngcEdL_pEmTXZ-2" value="Kernel-space" style="text;html=1;align=center;verticalAlign=middle;whiteSpace=wrap;rounded=0;" vertex="1" parent="1">
          <mxGeometry x="740" y="290" width="80" height="30" as="geometry" />
        </mxCell>
        <mxCell id="g0YWyiWngcEdL_pEmTXZ-3" value="User-space" style="text;html=1;align=center;verticalAlign=middle;resizable=0;points=[];autosize=1;strokeColor=none;fillColor=none;" vertex="1" parent="1">
          <mxGeometry x="740" y="250" width="80" height="30" as="geometry" />
        </mxCell>
        <mxCell id="g0YWyiWngcEdL_pEmTXZ-92" style="edgeStyle=orthogonalEdgeStyle;rounded=0;orthogonalLoop=1;jettySize=auto;html=1;exitX=0;exitY=0.5;exitDx=0;exitDy=0;exitPerimeter=0;entryX=1;entryY=0.25;entryDx=0;entryDy=0;jumpStyle=arc;" edge="1" parent="1" source="g0YWyiWngcEdL_pEmTXZ-23" target="g0YWyiWngcEdL_pEmTXZ-80">
          <mxGeometry relative="1" as="geometry">
            <Array as="points">
              <mxPoint x="-90" y="290" />
              <mxPoint x="-136" y="290" />
              <mxPoint x="-136" y="404" />
            </Array>
          </mxGeometry>
        </mxCell>
        <mxCell id="g0YWyiWngcEdL_pEmTXZ-23" value="port:pid" style="shape=cylinder3;whiteSpace=wrap;html=1;boundedLbl=1;backgroundOutline=1;size=15;" vertex="1" parent="1">
          <mxGeometry x="-90.5" y="240" width="60" height="80" as="geometry" />
        </mxCell>
        <mxCell id="g0YWyiWngcEdL_pEmTXZ-35" style="edgeStyle=orthogonalEdgeStyle;rounded=0;orthogonalLoop=1;jettySize=auto;html=1;" edge="1" parent="1" source="g0YWyiWngcEdL_pEmTXZ-24" target="g0YWyiWngcEdL_pEmTXZ-97">
          <mxGeometry relative="1" as="geometry">
            <mxPoint x="37" y="150" as="targetPoint" />
          </mxGeometry>
        </mxCell>
        <mxCell id="g0YWyiWngcEdL_pEmTXZ-24" value="ringbuf" style="verticalLabelPosition=bottom;shadow=0;dashed=0;align=center;html=1;verticalAlign=top;shape=mxgraph.electrical.logic_gates.buffer2;rotation=-90;" vertex="1" parent="1">
          <mxGeometry x="-13" y="240" width="100" height="60" as="geometry" />
        </mxCell>
        <mxCell id="g0YWyiWngcEdL_pEmTXZ-36" style="edgeStyle=orthogonalEdgeStyle;rounded=0;orthogonalLoop=1;jettySize=auto;html=1;entryX=0;entryY=0.5;entryDx=0;entryDy=0;" edge="1" parent="1" source="g0YWyiWngcEdL_pEmTXZ-6" target="g0YWyiWngcEdL_pEmTXZ-24">
          <mxGeometry relative="1" as="geometry" />
        </mxCell>
        <mxCell id="g0YWyiWngcEdL_pEmTXZ-40" style="edgeStyle=orthogonalEdgeStyle;rounded=0;orthogonalLoop=1;jettySize=auto;html=1;exitX=0.5;exitY=0;exitDx=0;exitDy=0;entryX=0.5;entryY=1;entryDx=0;entryDy=0;entryPerimeter=0;" edge="1" parent="1" source="g0YWyiWngcEdL_pEmTXZ-6" target="g0YWyiWngcEdL_pEmTXZ-23">
          <mxGeometry relative="1" as="geometry" />
        </mxCell>
        <mxCell id="g0YWyiWngcEdL_pEmTXZ-41" value="" style="group" vertex="1" connectable="0" parent="1">
          <mxGeometry x="-110" y="380" width="199" height="115.71571428571434" as="geometry" />
        </mxCell>
        <mxCell id="g0YWyiWngcEdL_pEmTXZ-27" value="" style="group" vertex="1" connectable="0" parent="g0YWyiWngcEdL_pEmTXZ-41">
          <mxGeometry width="199" height="94.29000000000002" as="geometry" />
        </mxCell>
        <mxCell id="g0YWyiWngcEdL_pEmTXZ-4" value="kprobe-secure_socket&lt;div&gt;_connection.&lt;div&gt;bpf.c&lt;/div&gt;&lt;/div&gt;" style="whiteSpace=wrap;html=1;aspect=fixed;" vertex="1" parent="g0YWyiWngcEdL_pEmTXZ-27">
          <mxGeometry y="0.29000000000002046" width="94" height="94" as="geometry" />
        </mxCell>
        <mxCell id="g0YWyiWngcEdL_pEmTXZ-6" value="Собирает" style="swimlane;fontStyle=0;childLayout=stackLayout;horizontal=1;startSize=30;horizontalStack=0;resizeParent=1;resizeParentMax=0;resizeLast=0;collapsible=1;marginBottom=0;whiteSpace=wrap;html=1;" vertex="1" parent="g0YWyiWngcEdL_pEmTXZ-27">
          <mxGeometry x="94" width="105.00000000000001" height="94.28571428571429" as="geometry">
            <mxRectangle x="94" width="90" height="30" as="alternateBounds" />
          </mxGeometry>
        </mxCell>
        <mxCell id="g0YWyiWngcEdL_pEmTXZ-7" value="PID" style="text;strokeColor=default;fillColor=none;align=left;verticalAlign=middle;spacingLeft=4;spacingRight=4;overflow=hidden;points=[[0,0.5],[1,0.5]];portConstraint=eastwest;rotatable=0;whiteSpace=wrap;html=1;" vertex="1" parent="g0YWyiWngcEdL_pEmTXZ-6">
          <mxGeometry y="30" width="105.00000000000001" height="21.428571428571427" as="geometry" />
        </mxCell>
        <mxCell id="g0YWyiWngcEdL_pEmTXZ-8" value="remote_addr" style="text;strokeColor=default;fillColor=none;align=left;verticalAlign=middle;spacingLeft=4;spacingRight=4;overflow=hidden;points=[[0,0.5],[1,0.5]];portConstraint=eastwest;rotatable=0;whiteSpace=wrap;html=1;" vertex="1" parent="g0YWyiWngcEdL_pEmTXZ-6">
          <mxGeometry y="51.42857142857143" width="105.00000000000001" height="21.428571428571427" as="geometry" />
        </mxCell>
        <mxCell id="g0YWyiWngcEdL_pEmTXZ-9" value="port" style="text;strokeColor=default;fillColor=none;align=left;verticalAlign=middle;spacingLeft=4;spacingRight=4;overflow=hidden;points=[[0,0.5],[1,0.5]];portConstraint=eastwest;rotatable=0;whiteSpace=wrap;html=1;" vertex="1" parent="g0YWyiWngcEdL_pEmTXZ-6">
          <mxGeometry y="72.85714285714286" width="105.00000000000001" height="21.428571428571427" as="geometry" />
        </mxCell>
        <mxCell id="g0YWyiWngcEdL_pEmTXZ-39" value="etc..." style="text;strokeColor=default;fillColor=none;align=left;verticalAlign=middle;spacingLeft=4;spacingRight=4;overflow=hidden;points=[[0,0.5],[1,0.5]];portConstraint=eastwest;rotatable=0;whiteSpace=wrap;html=1;" vertex="1" parent="g0YWyiWngcEdL_pEmTXZ-41">
          <mxGeometry x="94" y="94.2871428571429" width="105.00000000000001" height="21.428571428571427" as="geometry" />
        </mxCell>
        <mxCell id="g0YWyiWngcEdL_pEmTXZ-42" value="port" style="text;strokeColor=none;fillColor=none;align=left;verticalAlign=middle;spacingLeft=4;spacingRight=4;overflow=hidden;points=[[0,0.5],[1,0.5]];portConstraint=eastwest;rotatable=0;whiteSpace=wrap;html=1;" vertex="1" parent="1">
          <mxGeometry x="4" y="472.8571428571429" width="105.00000000000001" height="21.428571428571427" as="geometry" />
        </mxCell>
        <mxCell id="g0YWyiWngcEdL_pEmTXZ-43" value="" style="group" vertex="1" connectable="0" parent="1">
          <mxGeometry x="160" y="79.99999999999994" width="199" height="94.29000000000002" as="geometry" />
        </mxCell>
        <mxCell id="g0YWyiWngcEdL_pEmTXZ-44" value="tc-all_syscalls.c" style="whiteSpace=wrap;html=1;aspect=fixed;" vertex="1" parent="g0YWyiWngcEdL_pEmTXZ-43">
          <mxGeometry y="0.29000000000002046" width="94" height="94" as="geometry" />
        </mxCell>
        <mxCell id="g0YWyiWngcEdL_pEmTXZ-45" value="Делает" style="swimlane;fontStyle=0;childLayout=stackLayout;horizontal=1;startSize=30;horizontalStack=0;resizeParent=1;resizeParentMax=0;resizeLast=0;collapsible=1;marginBottom=0;whiteSpace=wrap;html=1;" vertex="1" parent="g0YWyiWngcEdL_pEmTXZ-43">
          <mxGeometry x="94" width="105.00000000000001" height="51.42857142857143" as="geometry" />
        </mxCell>
        <mxCell id="g0YWyiWngcEdL_pEmTXZ-46" value="Логгирует" style="text;strokeColor=default;fillColor=none;align=left;verticalAlign=middle;spacingLeft=4;spacingRight=4;overflow=hidden;points=[[0,0.5],[1,0.5]];portConstraint=eastwest;rotatable=0;whiteSpace=wrap;html=1;" vertex="1" parent="g0YWyiWngcEdL_pEmTXZ-45">
          <mxGeometry y="30" width="105.00000000000001" height="21.428571428571427" as="geometry" />
        </mxCell>
        <mxCell id="g0YWyiWngcEdL_pEmTXZ-49" value="" style="group" vertex="1" connectable="0" parent="1">
          <mxGeometry x="160" y="378.57" width="199" height="115.71571428571434" as="geometry" />
        </mxCell>
        <mxCell id="g0YWyiWngcEdL_pEmTXZ-50" value="" style="group" vertex="1" connectable="0" parent="g0YWyiWngcEdL_pEmTXZ-49">
          <mxGeometry width="199" height="94.29000000000002" as="geometry" />
        </mxCell>
        <mxCell id="g0YWyiWngcEdL_pEmTXZ-51" value="tc-all_syscalls.bpf.c" style="whiteSpace=wrap;html=1;aspect=fixed;" vertex="1" parent="g0YWyiWngcEdL_pEmTXZ-50">
          <mxGeometry y="0.29000000000002046" width="94" height="94" as="geometry" />
        </mxCell>
        <mxCell id="g0YWyiWngcEdL_pEmTXZ-52" value="Собирает" style="swimlane;fontStyle=0;childLayout=stackLayout;horizontal=1;startSize=30;horizontalStack=0;resizeParent=1;resizeParentMax=0;resizeLast=0;collapsible=1;marginBottom=0;whiteSpace=wrap;html=1;" vertex="1" parent="g0YWyiWngcEdL_pEmTXZ-50">
          <mxGeometry x="94" width="105.00000000000001" height="72.85714285714286" as="geometry">
            <mxRectangle x="94" width="90" height="30" as="alternateBounds" />
          </mxGeometry>
        </mxCell>
        <mxCell id="g0YWyiWngcEdL_pEmTXZ-53" value="PID" style="text;strokeColor=default;fillColor=none;align=left;verticalAlign=middle;spacingLeft=4;spacingRight=4;overflow=hidden;points=[[0,0.5],[1,0.5]];portConstraint=eastwest;rotatable=0;whiteSpace=wrap;html=1;" vertex="1" parent="g0YWyiWngcEdL_pEmTXZ-52">
          <mxGeometry y="30" width="105.00000000000001" height="21.428571428571427" as="geometry" />
        </mxCell>
        <mxCell id="g0YWyiWngcEdL_pEmTXZ-54" value="syscall_id" style="text;strokeColor=default;fillColor=none;align=left;verticalAlign=middle;spacingLeft=4;spacingRight=4;overflow=hidden;points=[[0,0.5],[1,0.5]];portConstraint=eastwest;rotatable=0;whiteSpace=wrap;html=1;" vertex="1" parent="g0YWyiWngcEdL_pEmTXZ-52">
          <mxGeometry y="51.42857142857143" width="105.00000000000001" height="21.428571428571427" as="geometry" />
        </mxCell>
        <mxCell id="g0YWyiWngcEdL_pEmTXZ-59" style="edgeStyle=orthogonalEdgeStyle;rounded=0;orthogonalLoop=1;jettySize=auto;html=1;" edge="1" parent="1" source="g0YWyiWngcEdL_pEmTXZ-57" target="g0YWyiWngcEdL_pEmTXZ-45">
          <mxGeometry relative="1" as="geometry" />
        </mxCell>
        <mxCell id="g0YWyiWngcEdL_pEmTXZ-57" value="ringbuf" style="verticalLabelPosition=bottom;shadow=0;dashed=0;align=center;html=1;verticalAlign=top;shape=mxgraph.electrical.logic_gates.buffer2;rotation=-90;" vertex="1" parent="1">
          <mxGeometry x="256.5" y="240" width="100" height="60" as="geometry" />
        </mxCell>
        <mxCell id="g0YWyiWngcEdL_pEmTXZ-58" style="edgeStyle=orthogonalEdgeStyle;rounded=0;orthogonalLoop=1;jettySize=auto;html=1;exitX=0.5;exitY=0;exitDx=0;exitDy=0;entryX=0;entryY=0.5;entryDx=0;entryDy=0;" edge="1" parent="1" source="g0YWyiWngcEdL_pEmTXZ-52" target="g0YWyiWngcEdL_pEmTXZ-57">
          <mxGeometry relative="1" as="geometry" />
        </mxCell>
        <mxCell id="g0YWyiWngcEdL_pEmTXZ-67" style="edgeStyle=orthogonalEdgeStyle;rounded=0;orthogonalLoop=1;jettySize=auto;html=1;exitX=0.5;exitY=1;exitDx=0;exitDy=0;exitPerimeter=0;entryX=0.5;entryY=0;entryDx=0;entryDy=0;" edge="1" parent="1" source="g0YWyiWngcEdL_pEmTXZ-64" target="g0YWyiWngcEdL_pEmTXZ-51">
          <mxGeometry relative="1" as="geometry" />
        </mxCell>
        <mxCell id="g0YWyiWngcEdL_pEmTXZ-64" value="syscall_id:&lt;div&gt;is_good&lt;/div&gt;" style="shape=cylinder3;whiteSpace=wrap;html=1;boundedLbl=1;backgroundOutline=1;size=15;" vertex="1" parent="1">
          <mxGeometry x="210" y="240" width="60" height="80" as="geometry" />
        </mxCell>
        <mxCell id="g0YWyiWngcEdL_pEmTXZ-66" style="edgeStyle=orthogonalEdgeStyle;rounded=0;orthogonalLoop=1;jettySize=auto;html=1;exitX=0.5;exitY=1;exitDx=0;exitDy=0;entryX=0.5;entryY=0;entryDx=0;entryDy=0;entryPerimeter=0;" edge="1" parent="1" source="g0YWyiWngcEdL_pEmTXZ-44" target="g0YWyiWngcEdL_pEmTXZ-64">
          <mxGeometry relative="1" as="geometry" />
        </mxCell>
        <mxCell id="g0YWyiWngcEdL_pEmTXZ-71" style="edgeStyle=orthogonalEdgeStyle;rounded=0;orthogonalLoop=1;jettySize=auto;html=1;exitX=0.5;exitY=1;exitDx=0;exitDy=0;exitPerimeter=0;" edge="1" parent="1" source="g0YWyiWngcEdL_pEmTXZ-69" target="g0YWyiWngcEdL_pEmTXZ-51">
          <mxGeometry relative="1" as="geometry" />
        </mxCell>
        <mxCell id="g0YWyiWngcEdL_pEmTXZ-69" value="pid(how?)" style="shape=cylinder3;whiteSpace=wrap;html=1;boundedLbl=1;backgroundOutline=1;size=15;" vertex="1" parent="1">
          <mxGeometry x="140" y="240" width="60" height="80" as="geometry" />
        </mxCell>
        <mxCell id="g0YWyiWngcEdL_pEmTXZ-70" style="edgeStyle=orthogonalEdgeStyle;rounded=0;orthogonalLoop=1;jettySize=auto;html=1;" edge="1" parent="1" source="g0YWyiWngcEdL_pEmTXZ-44" target="g0YWyiWngcEdL_pEmTXZ-69">
          <mxGeometry relative="1" as="geometry" />
        </mxCell>
        <mxCell id="g0YWyiWngcEdL_pEmTXZ-72" value="" style="group" vertex="1" connectable="0" parent="1">
          <mxGeometry x="-380" y="79.99999999999994" width="199" height="94.29000000000002" as="geometry" />
        </mxCell>
        <mxCell id="g0YWyiWngcEdL_pEmTXZ-73" value="xdp-inspector.c" style="whiteSpace=wrap;html=1;aspect=fixed;" vertex="1" parent="g0YWyiWngcEdL_pEmTXZ-72">
          <mxGeometry y="0.29000000000002046" width="94" height="94" as="geometry" />
        </mxCell>
        <mxCell id="g0YWyiWngcEdL_pEmTXZ-74" value="Делает" style="swimlane;fontStyle=0;childLayout=stackLayout;horizontal=1;startSize=30;horizontalStack=0;resizeParent=1;resizeParentMax=0;resizeLast=0;collapsible=1;marginBottom=0;whiteSpace=wrap;html=1;" vertex="1" parent="g0YWyiWngcEdL_pEmTXZ-72">
          <mxGeometry x="94" width="105.00000000000001" height="51.42857142857143" as="geometry" />
        </mxCell>
        <mxCell id="g0YWyiWngcEdL_pEmTXZ-75" value="Логгирует" style="text;strokeColor=default;fillColor=none;align=left;verticalAlign=middle;spacingLeft=4;spacingRight=4;overflow=hidden;points=[[0,0.5],[1,0.5]];portConstraint=eastwest;rotatable=0;whiteSpace=wrap;html=1;" vertex="1" parent="g0YWyiWngcEdL_pEmTXZ-74">
          <mxGeometry y="30" width="105.00000000000001" height="21.428571428571427" as="geometry" />
        </mxCell>
        <mxCell id="g0YWyiWngcEdL_pEmTXZ-78" value="" style="group" vertex="1" connectable="0" parent="1">
          <mxGeometry x="-380" y="379.99999999999994" width="199" height="94.29000000000002" as="geometry" />
        </mxCell>
        <mxCell id="g0YWyiWngcEdL_pEmTXZ-79" value="xdp-inspector.bpf.c" style="whiteSpace=wrap;html=1;aspect=fixed;" vertex="1" parent="g0YWyiWngcEdL_pEmTXZ-78">
          <mxGeometry y="0.29000000000002046" width="94" height="94" as="geometry" />
        </mxCell>
        <mxCell id="g0YWyiWngcEdL_pEmTXZ-80" value="Собирает" style="swimlane;fontStyle=0;childLayout=stackLayout;horizontal=1;startSize=30;horizontalStack=0;resizeParent=1;resizeParentMax=0;resizeLast=0;collapsible=1;marginBottom=0;whiteSpace=wrap;html=1;" vertex="1" parent="g0YWyiWngcEdL_pEmTXZ-78">
          <mxGeometry x="94" width="105.00000000000001" height="94.28571428571429" as="geometry" />
        </mxCell>
        <mxCell id="g0YWyiWngcEdL_pEmTXZ-81" value="timestamp" style="text;strokeColor=default;fillColor=none;align=left;verticalAlign=middle;spacingLeft=4;spacingRight=4;overflow=hidden;points=[[0,0.5],[1,0.5]];portConstraint=eastwest;rotatable=0;whiteSpace=wrap;html=1;" vertex="1" parent="g0YWyiWngcEdL_pEmTXZ-80">
          <mxGeometry y="30" width="105.00000000000001" height="21.428571428571427" as="geometry" />
        </mxCell>
        <mxCell id="g0YWyiWngcEdL_pEmTXZ-82" value="src_ip" style="text;strokeColor=default;fillColor=none;align=left;verticalAlign=middle;spacingLeft=4;spacingRight=4;overflow=hidden;points=[[0,0.5],[1,0.5]];portConstraint=eastwest;rotatable=0;whiteSpace=wrap;html=1;" vertex="1" parent="g0YWyiWngcEdL_pEmTXZ-80">
          <mxGeometry y="51.42857142857143" width="105.00000000000001" height="21.428571428571427" as="geometry" />
        </mxCell>
        <mxCell id="g0YWyiWngcEdL_pEmTXZ-83" value="src_port" style="text;strokeColor=default;fillColor=none;align=left;verticalAlign=middle;spacingLeft=4;spacingRight=4;overflow=hidden;points=[[0,0.5],[1,0.5]];portConstraint=eastwest;rotatable=0;whiteSpace=wrap;html=1;" vertex="1" parent="g0YWyiWngcEdL_pEmTXZ-80">
          <mxGeometry y="72.85714285714286" width="105.00000000000001" height="21.428571428571427" as="geometry" />
        </mxCell>
        <mxCell id="g0YWyiWngcEdL_pEmTXZ-85" value="dst_ip" style="text;strokeColor=default;fillColor=none;align=left;verticalAlign=middle;spacingLeft=4;spacingRight=4;overflow=hidden;points=[[0,0.5],[1,0.5]];portConstraint=eastwest;rotatable=0;whiteSpace=wrap;html=1;" vertex="1" parent="1">
          <mxGeometry x="-286" y="474.2871428571428" width="105.00000000000001" height="21.428571428571427" as="geometry" />
        </mxCell>
        <mxCell id="g0YWyiWngcEdL_pEmTXZ-86" value="dst_port" style="text;strokeColor=default;fillColor=none;align=left;verticalAlign=middle;spacingLeft=4;spacingRight=4;overflow=hidden;points=[[0,0.5],[1,0.5]];portConstraint=eastwest;rotatable=0;whiteSpace=wrap;html=1;" vertex="1" parent="1">
          <mxGeometry x="-286" y="495.7171428571428" width="105.00000000000001" height="21.428571428571427" as="geometry" />
        </mxCell>
        <mxCell id="g0YWyiWngcEdL_pEmTXZ-87" value="ip_proto" style="text;strokeColor=default;fillColor=none;align=left;verticalAlign=middle;spacingLeft=4;spacingRight=4;overflow=hidden;points=[[0,0.5],[1,0.5]];portConstraint=eastwest;rotatable=0;whiteSpace=wrap;html=1;" vertex="1" parent="1">
          <mxGeometry x="-286" y="517.1471428571427" width="105.00000000000001" height="21.428571428571427" as="geometry" />
        </mxCell>
        <mxCell id="g0YWyiWngcEdL_pEmTXZ-91" style="edgeStyle=orthogonalEdgeStyle;rounded=0;orthogonalLoop=1;jettySize=auto;html=1;" edge="1" parent="1" source="g0YWyiWngcEdL_pEmTXZ-88" target="g0YWyiWngcEdL_pEmTXZ-74">
          <mxGeometry relative="1" as="geometry" />
        </mxCell>
        <mxCell id="g0YWyiWngcEdL_pEmTXZ-88" value="tsp_sip_sport:&lt;div&gt;dip_dport_proto&lt;/div&gt;" style="shape=cylinder3;whiteSpace=wrap;html=1;boundedLbl=1;backgroundOutline=1;size=15;" vertex="1" parent="1">
          <mxGeometry x="-376" y="240" width="90" height="100" as="geometry" />
        </mxCell>
        <mxCell id="g0YWyiWngcEdL_pEmTXZ-90" style="edgeStyle=orthogonalEdgeStyle;rounded=0;orthogonalLoop=1;jettySize=auto;html=1;entryX=0.5;entryY=1;entryDx=0;entryDy=0;entryPerimeter=0;" edge="1" parent="1" source="g0YWyiWngcEdL_pEmTXZ-80" target="g0YWyiWngcEdL_pEmTXZ-88">
          <mxGeometry relative="1" as="geometry" />
        </mxCell>
        <mxCell id="g0YWyiWngcEdL_pEmTXZ-95" value="" style="group" vertex="1" connectable="0" parent="1">
          <mxGeometry x="-109" y="79.99999999999994" width="199" height="94.29000000000002" as="geometry" />
        </mxCell>
        <mxCell id="g0YWyiWngcEdL_pEmTXZ-96" value="kprobe-secure_socket&lt;div&gt;_connection.&lt;span style=&quot;background-color: initial;&quot;&gt;c&lt;/span&gt;&lt;/div&gt;" style="whiteSpace=wrap;html=1;aspect=fixed;" vertex="1" parent="g0YWyiWngcEdL_pEmTXZ-95">
          <mxGeometry y="0.29000000000002046" width="94" height="94" as="geometry" />
        </mxCell>
        <mxCell id="g0YWyiWngcEdL_pEmTXZ-97" value="Делает" style="swimlane;fontStyle=0;childLayout=stackLayout;horizontal=1;startSize=30;horizontalStack=0;resizeParent=1;resizeParentMax=0;resizeLast=0;collapsible=1;marginBottom=0;whiteSpace=wrap;html=1;" vertex="1" parent="g0YWyiWngcEdL_pEmTXZ-95">
          <mxGeometry x="94" width="105.00000000000001" height="72.85714285714286" as="geometry" />
        </mxCell>
        <mxCell id="g0YWyiWngcEdL_pEmTXZ-98" value="Логгирует" style="text;strokeColor=default;fillColor=none;align=left;verticalAlign=middle;spacingLeft=4;spacingRight=4;overflow=hidden;points=[[0,0.5],[1,0.5]];portConstraint=eastwest;rotatable=0;whiteSpace=wrap;html=1;" vertex="1" parent="g0YWyiWngcEdL_pEmTXZ-97">
          <mxGeometry y="30" width="105.00000000000001" height="21.428571428571427" as="geometry" />
        </mxCell>
        <mxCell id="g0YWyiWngcEdL_pEmTXZ-99" value="Проверяет ip?" style="text;strokeColor=default;fillColor=none;align=left;verticalAlign=middle;spacingLeft=4;spacingRight=4;overflow=hidden;points=[[0,0.5],[1,0.5]];portConstraint=eastwest;rotatable=0;whiteSpace=wrap;html=1;" vertex="1" parent="g0YWyiWngcEdL_pEmTXZ-97">
          <mxGeometry y="51.42857142857143" width="105.00000000000001" height="21.428571428571427" as="geometry" />
        </mxCell>
      </root>
    </mxGraphModel>
  </diagram>
</mxfile>
